<?xml version="1.0" standalone="no"?>
<!DOCTYPE svg PUBLIC "-//W3C//DTD SVG 20010904//EN"
 "http://www.w3.org/TR/2001/REC-SVG-20010904/DTD/svg10.dtd">
<svg version="1.0" xmlns="http://www.w3.org/2000/svg"
 width="700.000000pt" height="700.000000pt" viewBox="0 0 700.000000 700.000000"
 preserveAspectRatio="xMidYMid meet">
<metadata>
Created by potrace 1.11, written by Peter Selinger 2001-2013
</metadata>
<g transform="translate(0.000000,700.000000) scale(0.100000,-0.100000)"
fill="#000000" stroke="none">
<path d="M0 3500 l0 -3500 3500 0 3500 0 0 3500 0 3500 -3500 0 -3500 0 0
-3500z m3137 2341 c65 -29 124 -91 149 -157 18 -47 19 -87 19 -914 l0 -865
-24 -52 c-13 -29 -45 -72 -71 -97 -86 -80 -40 -77 -1021 -74 l-864 3 -50 27
c-60 31 -95 67 -127 128 l-23 45 -3 870 c-2 567 1 882 7 905 16 56 67 127 111
156 81 54 68 53 990 51 l855 -2 52 -24z m2590 0 c65 -29 124 -91 149 -157 18
-47 19 -87 19 -914 l0 -865 -24 -52 c-13 -29 -45 -72 -71 -97 -86 -80 -40 -77
-1021 -74 l-864 3 -50 27 c-60 31 -95 67 -127 128 l-23 45 -3 870 c-2 567 1
882 7 905 16 56 67 127 111 156 81 54 68 53 990 51 l855 -2 52 -24z m-2618
-2537 c68 -20 140 -86 172 -157 l24 -52 0 -870 0 -870 -24 -52 c-29 -65 -91
-124 -157 -149 -47 -18 -87 -19 -919 -19 l-870 0 -57 28 c-65 32 -101 70 -135
143 l-23 52 2 878 3 879 23 45 c40 76 99 125 182 151 14 4 408 8 876 8 747 1
857 -1 903 -15z m2590 0 c68 -20 140 -86 172 -157 l24 -52 0 -870 0 -870 -24
-52 c-29 -65 -91 -124 -157 -149 -47 -18 -87 -19 -919 -19 l-870 0 -57 28
c-65 32 -101 70 -135 143 l-23 52 2 878 3 879 23 45 c40 76 99 125 182 151 14
4 408 8 876 8 747 1 857 -1 903 -15z"/>
</g>
</svg>
