<?xml version="1.0" encoding="UTF-8"?>
<svg width="96px" height="96px" viewBox="0 0 96 96" version="1.1" xmlns="http://www.w3.org/2000/svg" xmlns:xlink="http://www.w3.org/1999/xlink">
    <!-- Generator: Sketch 48.1 (47250) - http://www.bohemiancoding.com/sketch -->
    <title>Artboard</title>
    <desc>Created with Sketch.</desc>
    <defs></defs>
    <g id="Page-1" stroke="none" stroke-width="1" fill="none" fill-rule="evenodd">
        <g id="Artboard" fill="#FFFFFF" fill-rule="nonzero">
            <g id="noun_957477_cc" transform="translate(7.000000, 3.000000)">
                <rect id="Rectangle-path" x="19.4" y="62.7" width="2.4" height="8.8"></rect>
                <rect id="Rectangle-path" x="19.4" y="36.1" width="2.4" height="8.8"></rect>
                <rect id="Rectangle-path" x="42.5" y="63.8" width="2.4" height="8.2"></rect>
                <rect id="Rectangle-path" x="61.6" y="63.8" width="2.4" height="8.2"></rect>
                <path d="M53.7,50.6 L45.1,56.6 L45.1,22.9 L51.4,22.9 L51.4,0.9 L45.1,0.9 L45.1,12.2 L39.4,12.2 L39.4,0.9 L18.7,0.9 L18.7,11.2 L11.5,11.2 L11.5,0.9 L0.4,0.9 L0.4,22.9 L7.6,22.9 L7.6,90.9 L81.6,90.9 L81.6,64.7 L53.7,50.6 Z M3.2,20.1 L3.2,4.3 L8.7,4.3 L8.7,13.8 L21.8,13.8 L21.8,4.3 L28.8,4.3 L28.8,20.2 L3.2,20.2 L3.2,20.1 Z M10.5,89 L10.5,22.9 L30.8,22.9 L30.8,89 L10.5,89 Z M69.1,89 L57.1,89 L57.1,79.2 C57.1,79.2 56.6,76.4 53.2,76.4 C49.9,76.4 49.3,79.2 49.3,79.2 L49.3,89 L38.7,89 L37.5,89 L37.5,64.1 L53.8,52.9 L69.3,63.7 L69.1,89 Z" id="Shape"></path>
            </g>
        </g>
    </g>
</svg>