<?xml version="1.0" encoding="UTF-8"?>
<svg width="292px" height="287px" viewBox="0 0 292 287" version="1.1" xmlns="http://www.w3.org/2000/svg" xmlns:xlink="http://www.w3.org/1999/xlink">
    <!-- Generator: Sketch 48.1 (47250) - http://www.bohemiancoding.com/sketch -->
    <title>Group</title>
    <desc>Created with Sketch.</desc>
    <defs></defs>
    <g id="Artboard" stroke="none" stroke-width="1" fill="none" fill-rule="evenodd" transform="translate(-53.000000, -30.000000)">
        <g id="Group-2" transform="translate(53.000000, 30.000000)">
            <g id="Group">
                <rect id="Spacing" fill="#D8D8D8" x="141" y="205" width="12" height="27"></rect>
                <path d="M15.3688853,158.451119 L108.896229,92.7897996 C129.388076,78.4034001 162.611924,78.4034001 183.103771,92.7897996 L276.631115,158.451119 C297.122962,172.837519 297.122962,196.162481 276.631115,210.548881 L183.103771,276.2102 C162.611924,290.5966 129.388076,290.5966 108.896229,276.2102 L15.3688853,210.548881 C-5.12296177,196.162481 -5.12296177,172.837519 15.3688853,158.451119 Z" id="Rectangle" fill="#AD91E2"></path>
                <rect id="Rectangle-2" fill="#AD91E2" x="0" y="156" width="35" height="32"></rect>
                <rect id="Rectangle-2" fill="#AD91E2" x="257" y="156" width="35" height="32"></rect>
                <path d="M15.3688853,130.451119 L108.896229,64.7897996 C129.388076,50.4034001 162.611924,50.4034001 183.103771,64.7897996 L276.631115,130.451119 C297.122962,144.837519 297.122962,168.162481 276.631115,182.548881 L183.103771,248.2102 C162.611924,262.5966 129.388076,262.5966 108.896229,248.2102 L15.3688853,182.548881 C-5.12296177,168.162481 -5.12296177,144.837519 15.3688853,130.451119 Z" id="Rectangle" fill="#9A82C8"></path>
                <rect id="Rectangle-2" fill="#9A82C8" x="0" y="130" width="35" height="32"></rect>
                <rect id="Rectangle-2" fill="#9A82C8" x="257" y="130" width="35" height="32"></rect>
                <path d="M15.3688853,103.451119 L108.896229,37.7897996 C129.388076,23.4034001 162.611924,23.4034001 183.103771,37.7897996 L276.631115,103.451119 C297.122962,117.837519 297.122962,141.162481 276.631115,155.548881 L183.103771,221.2102 C162.611924,235.5966 129.388076,235.5966 108.896229,221.2102 L15.3688853,155.548881 C-5.12296177,141.162481 -5.12296177,117.837519 15.3688853,103.451119 Z" id="Rectangle" fill="#856FAE"></path>
                <rect id="Rectangle-2" fill="#856FAE" x="0" y="98" width="35" height="32"></rect>
                <rect id="Rectangle-2" fill="#856FAE" x="257" y="98" width="35" height="32"></rect>
                <path d="M15.3688853,76.4511194 L108.896229,10.7897996 C129.388076,-3.59659987 162.611924,-3.59659987 183.103771,10.7897996 L276.631115,76.4511194 C297.122962,90.8375189 297.122962,114.162481 276.631115,128.548881 L183.103771,194.2102 C162.611924,208.5966 129.388076,208.5966 108.896229,194.2102 L15.3688853,128.548881 C-5.12296177,114.162481 -5.12296177,90.8375189 15.3688853,76.4511194 Z" id="Logo" fill="#6F5C92"></path>
                <path d="M47.5616944,93.0112324 L78.9830825,70.9764631 C82.7017011,68.3687201 89.104673,68.3374291 93.2845206,70.9065725 L128.603177,92.6151856 C132.783024,95.184329 133.156924,99.3810246 129.438306,101.988768 L98.0169175,124.023537 C94.2982989,126.63128 87.895327,126.662571 83.7154794,124.093428 L48.3968233,102.384814 C44.2169758,99.815671 43.8430758,95.6189754 47.5616944,93.0112324 Z" id="Rectangle-4" fill="#FFFFFF" opacity="0.3"></path>
                <path d="M102.561694,56.0112324 L133.983083,33.9764631 C137.701701,31.3687201 144.104673,31.3374291 148.284521,33.9065725 L183.603177,55.6151856 C187.783024,58.184329 188.156924,62.3810246 184.438306,64.9887676 L153.016917,87.0235369 C149.298299,89.6312799 142.895327,89.6625709 138.715479,87.0934275 L103.396823,65.3848144 C99.2169758,62.815671 98.8430758,58.6189754 102.561694,56.0112324 Z" id="Rectangle-4-Copy" fill="#FFFFFF" opacity="0.65"></path>
                <path d="M109.561694,131.011232 L140.983083,108.976463 C144.701701,106.36872 151.104673,106.337429 155.284521,108.906572 L190.603177,130.615186 C194.783024,133.184329 195.156924,137.381025 191.438306,139.988768 L160.016917,162.023537 C156.298299,164.63128 149.895327,164.662571 145.715479,162.093428 L110.396823,140.384814 C106.216976,137.815671 105.843076,133.618975 109.561694,131.011232 Z" id="Rectangle-4-Copy-3" fill="#FFFFFF" opacity="0.1"></path>
                <path d="M164.561694,93.0112324 L195.983083,70.9764631 C199.701701,68.3687201 206.104673,68.3374291 210.284521,70.9065725 L245.603177,92.6151856 C249.783024,95.184329 250.156924,99.3810246 246.438306,101.988768 L215.016917,124.023537 C211.298299,126.63128 204.895327,126.662571 200.715479,124.093428 L165.396823,102.384814 C161.216976,99.815671 160.843076,95.6189754 164.561694,93.0112324 Z" id="Rectangle-4-Copy-2" fill="#FFFFFF" opacity="0.85"></path>
            </g>
        </g>
    </g>
</svg>