<?xml version="1.0" encoding="UTF-8"?>
<svg width="1130px" height="287px" viewBox="0 0 1130 287" version="1.1" xmlns="http://www.w3.org/2000/svg" xmlns:xlink="http://www.w3.org/1999/xlink">
    <!-- Generator: Sketch 48.1 (47250) - http://www.bohemiancoding.com/sketch -->
    <title>Group 2</title>
    <desc>Created with Sketch.</desc>
    <defs></defs>
    <g id="Artboard" stroke="none" stroke-width="1" fill="none" fill-rule="evenodd" transform="translate(-53.000000, -30.000000)">
        <g id="Group-2" transform="translate(53.000000, 30.000000)">
            <g id="Group">
                <rect id="Spacing" fill="#D8D8D8" x="141" y="205" width="12" height="27"></rect>
                <path d="M15.3688853,158.451119 L108.896229,92.7897996 C129.388076,78.4034001 162.611924,78.4034001 183.103771,92.7897996 L276.631115,158.451119 C297.122962,172.837519 297.122962,196.162481 276.631115,210.548881 L183.103771,276.2102 C162.611924,290.5966 129.388076,290.5966 108.896229,276.2102 L15.3688853,210.548881 C-5.12296177,196.162481 -5.12296177,172.837519 15.3688853,158.451119 Z" id="Rectangle" fill="#AD91E2"></path>
                <rect id="Rectangle-2" fill="#AD91E2" x="0" y="156" width="35" height="32"></rect>
                <rect id="Rectangle-2" fill="#AD91E2" x="257" y="156" width="35" height="32"></rect>
                <path d="M15.3688853,130.451119 L108.896229,64.7897996 C129.388076,50.4034001 162.611924,50.4034001 183.103771,64.7897996 L276.631115,130.451119 C297.122962,144.837519 297.122962,168.162481 276.631115,182.548881 L183.103771,248.2102 C162.611924,262.5966 129.388076,262.5966 108.896229,248.2102 L15.3688853,182.548881 C-5.12296177,168.162481 -5.12296177,144.837519 15.3688853,130.451119 Z" id="Rectangle" fill="#9A82C8"></path>
                <rect id="Rectangle-2" fill="#9A82C8" x="0" y="130" width="35" height="32"></rect>
                <rect id="Rectangle-2" fill="#9A82C8" x="257" y="130" width="35" height="32"></rect>
                <path d="M15.3688853,103.451119 L108.896229,37.7897996 C129.388076,23.4034001 162.611924,23.4034001 183.103771,37.7897996 L276.631115,103.451119 C297.122962,117.837519 297.122962,141.162481 276.631115,155.548881 L183.103771,221.2102 C162.611924,235.5966 129.388076,235.5966 108.896229,221.2102 L15.3688853,155.548881 C-5.12296177,141.162481 -5.12296177,117.837519 15.3688853,103.451119 Z" id="Rectangle" fill="#856FAE"></path>
                <rect id="Rectangle-2" fill="#856FAE" x="0" y="98" width="35" height="32"></rect>
                <rect id="Rectangle-2" fill="#856FAE" x="257" y="98" width="35" height="32"></rect>
                <path d="M15.3688853,76.4511194 L108.896229,10.7897996 C129.388076,-3.59659987 162.611924,-3.59659987 183.103771,10.7897996 L276.631115,76.4511194 C297.122962,90.8375189 297.122962,114.162481 276.631115,128.548881 L183.103771,194.2102 C162.611924,208.5966 129.388076,208.5966 108.896229,194.2102 L15.3688853,128.548881 C-5.12296177,114.162481 -5.12296177,90.8375189 15.3688853,76.4511194 Z" id="Logo" fill="#6F5C92"></path>
                <path d="M47.5616944,93.0112324 L78.9830825,70.9764631 C82.7017011,68.3687201 89.104673,68.3374291 93.2845206,70.9065725 L128.603177,92.6151856 C132.783024,95.184329 133.156924,99.3810246 129.438306,101.988768 L98.0169175,124.023537 C94.2982989,126.63128 87.895327,126.662571 83.7154794,124.093428 L48.3968233,102.384814 C44.2169758,99.815671 43.8430758,95.6189754 47.5616944,93.0112324 Z" id="Rectangle-4" fill="#FFFFFF" opacity="0.3"></path>
                <path d="M102.561694,56.0112324 L133.983083,33.9764631 C137.701701,31.3687201 144.104673,31.3374291 148.284521,33.9065725 L183.603177,55.6151856 C187.783024,58.184329 188.156924,62.3810246 184.438306,64.9887676 L153.016917,87.0235369 C149.298299,89.6312799 142.895327,89.6625709 138.715479,87.0934275 L103.396823,65.3848144 C99.2169758,62.815671 98.8430758,58.6189754 102.561694,56.0112324 Z" id="Rectangle-4-Copy" fill="#FFFFFF" opacity="0.65"></path>
                <path d="M109.561694,131.011232 L140.983083,108.976463 C144.701701,106.36872 151.104673,106.337429 155.284521,108.906572 L190.603177,130.615186 C194.783024,133.184329 195.156924,137.381025 191.438306,139.988768 L160.016917,162.023537 C156.298299,164.63128 149.895327,164.662571 145.715479,162.093428 L110.396823,140.384814 C106.216976,137.815671 105.843076,133.618975 109.561694,131.011232 Z" id="Rectangle-4-Copy-3" fill="#FFFFFF" opacity="0.1"></path>
                <path d="M164.561694,93.0112324 L195.983083,70.9764631 C199.701701,68.3687201 206.104673,68.3374291 210.284521,70.9065725 L245.603177,92.6151856 C249.783024,95.184329 250.156924,99.3810246 246.438306,101.988768 L215.016917,124.023537 C211.298299,126.63128 204.895327,126.662571 200.715479,124.093428 L165.396823,102.384814 C161.216976,99.815671 160.843076,95.6189754 164.561694,93.0112324 Z" id="Rectangle-4-Copy-2" fill="#FFFFFF" opacity="0.85"></path>
            </g>
            <path d="M453.699219,205.78418 L453.699219,222 L366.013672,222 L366.013672,77.559082 L384.03125,77.559082 L384.03125,205.78418 L453.699219,205.78418 Z M477.385932,222 L477.385932,117.898438 L494.802925,117.898438 L494.802925,222 L477.385932,222 Z M486.094429,100.381348 C480.188667,100.381348 475.283882,95.4765625 475.283882,89.5708008 C475.283882,83.5649414 480.188667,78.7602539 486.094429,78.7602539 C492.100288,78.7602539 497.005073,83.5649414 497.005073,89.5708008 C497.005073,95.4765625 492.100288,100.381348 486.094429,100.381348 Z M575.745498,223.801758 C560.530654,223.801758 548.619033,216.394531 541.91249,204.382812 L541.512099,204.382812 L541.512099,222 L524.895888,222 L524.895888,77.559082 L542.312881,77.559082 L542.312881,135.31543 L542.713271,135.31543 C549.219619,123.403809 561.331435,116.09668 576.045791,116.09668 C602.271377,116.09668 619.988662,137.317383 619.988662,169.949219 C619.988662,202.681152 602.371474,223.801758 575.745498,223.801758 Z M572.342177,131.411621 C554.72499,131.411621 542.212783,146.82666 542.212783,169.949219 C542.212783,193.171875 554.72499,208.486816 572.342177,208.486816 C590.760146,208.486816 602.171279,193.772461 602.171279,169.949219 C602.171279,146.326172 590.760146,131.411621 572.342177,131.411621 Z M643.274985,222 L643.274985,117.898438 L659.691,117.898438 L659.691,134.915039 L660.091391,134.915039 C663.494711,123.403809 673.104086,116.09668 685.316,116.09668 C688.31893,116.09668 690.921469,116.597168 692.322836,116.797363 L692.322836,133.713867 C690.921469,133.213379 687.217856,132.712891 683.013754,132.712891 C669.500571,132.712891 660.691977,142.422363 660.691977,157.136719 L660.691977,222 L643.274985,222 Z M744.437284,208.987305 C760.8533,208.987305 773.465605,197.476074 773.465605,182.461426 L773.465605,173.953125 L745.638456,175.654785 C731.624784,176.555664 723.616972,182.761719 723.616972,192.571289 C723.616972,202.480957 731.925077,208.987305 744.437284,208.987305 Z M740.533476,223.801758 C719.813261,223.801758 705.899687,211.289551 705.899687,192.571289 C705.899687,174.753906 719.613066,163.542969 743.636503,162.141602 L773.465605,160.439941 L773.465605,151.731445 C773.465605,139.019043 765.057402,131.411621 750.643339,131.411621 C737.230253,131.411621 728.82205,137.717773 726.619902,147.927734 L709.803495,147.927734 C711.004667,129.910156 726.419706,116.09668 751.04373,116.09668 C775.467558,116.09668 790.882597,129.30957 790.882597,150.029785 L790.882597,222 L774.366484,222 L774.366484,204.08252 L773.966093,204.08252 C767.760038,215.994141 754.547148,223.801758 740.533476,223.801758 Z M818.673315,222 L818.673315,117.898438 L835.08933,117.898438 L835.08933,134.915039 L835.489721,134.915039 C838.893041,123.403809 848.502416,116.09668 860.71433,116.09668 C863.71726,116.09668 866.319799,116.597168 867.721166,116.797363 L867.721166,133.713867 C866.319799,133.213379 862.616186,132.712891 858.412084,132.712891 C844.898901,132.712891 836.090307,142.422363 836.090307,157.136719 L836.090307,222 L818.673315,222 Z M888.40495,222 L888.40495,117.898438 L905.821942,117.898438 L905.821942,222 L888.40495,222 Z M897.113446,100.381348 C891.207685,100.381348 886.302899,95.4765625 886.302899,89.5708008 C886.302899,83.5649414 891.207685,78.7602539 897.113446,78.7602539 C903.119306,78.7602539 908.024091,83.5649414 908.024091,89.5708008 C908.024091,95.4765625 903.119306,100.381348 897.113446,100.381348 Z M969.347523,208.987305 C985.763539,208.987305 998.375844,197.476074 998.375844,182.461426 L998.375844,173.953125 L970.548695,175.654785 C956.535023,176.555664 948.527211,182.761719 948.527211,192.571289 C948.527211,202.480957 956.835316,208.987305 969.347523,208.987305 Z M965.443715,223.801758 C944.7235,223.801758 930.809926,211.289551 930.809926,192.571289 C930.809926,174.753906 944.523304,163.542969 968.546742,162.141602 L998.375844,160.439941 L998.375844,151.731445 C998.375844,139.019043 989.96764,131.411621 975.553578,131.411621 C962.140492,131.411621 953.732289,137.717773 951.53014,147.927734 L934.713734,147.927734 C935.914906,129.910156 951.329945,116.09668 975.953969,116.09668 C1000.3778,116.09668 1015.79284,129.30957 1015.79284,150.029785 L1015.79284,222 L999.276722,222 L999.276722,204.08252 L998.876332,204.08252 C992.670277,215.994141 979.457386,223.801758 965.443715,223.801758 Z M1043.58355,222 L1043.58355,117.898438 L1059.99957,117.898438 L1059.99957,134.514648 L1060.39996,134.514648 C1066.20562,123.303711 1077.31646,116.09668 1093.43219,116.09668 C1116.25445,116.09668 1129.46734,130.811035 1129.46734,154.434082 L1129.46734,222 L1112.05035,222 L1112.05035,157.537109 C1112.05035,140.720703 1104.14264,131.511719 1088.12701,131.511719 C1071.71099,131.511719 1061.00055,143.123047 1061.00055,160.740234 L1061.00055,222 L1043.58355,222 Z" id="Librarian" fill="#363636"></path>
        </g>
    </g>
</svg>